<svg width="16px" height="16px" viewBox="24 24 16 16">
  <path fill="#ddd" d="M31.986,24c2.238,0,4.143,0.782,5.714,2.343c0.752,0.752,1.323,1.612,1.714,2.579S40,30.915,40,32
  c0,1.095-0.193,2.122-0.578,3.078c-0.386,0.957-0.955,1.803-1.707,2.536c-0.781,0.771-1.667,1.362-2.657,1.771S33.043,40,31.986,40
  c-1.057,0-2.069-0.202-3.036-0.607c-0.966-0.404-1.833-0.99-2.6-1.757c-0.767-0.767-1.35-1.631-1.75-2.593
  C24.2,34.081,24,33.067,24,32c0-1.058,0.203-2.074,0.607-3.05c0.405-0.976,0.993-1.85,1.764-2.622
  C27.896,24.777,29.767,24,31.986,24z M32.015,25.443c-1.829,0-3.367,0.638-4.615,1.914c-0.628,0.638-1.112,1.355-1.45,2.15
  c-0.339,0.795-0.507,1.626-0.507,2.493c0,0.857,0.168,1.683,0.507,2.478c0.338,0.796,0.821,1.506,1.45,2.129
  c0.628,0.624,1.338,1.101,2.129,1.429c0.79,0.329,1.619,0.493,2.486,0.493c0.856,0,1.688-0.166,2.493-0.5
  c0.805-0.333,1.53-0.814,2.179-1.442c1.247-1.219,1.87-2.748,1.87-4.586c0-0.886-0.161-1.724-0.485-2.515
  c-0.323-0.79-0.795-1.495-1.413-2.114C35.371,26.086,33.824,25.443,32.015,25.443z M31.915,30.672l-1.072,0.558
  c-0.115-0.238-0.255-0.405-0.421-0.5c-0.167-0.095-0.322-0.143-0.464-0.143c-0.714,0-1.072,0.471-1.072,1.415
  c0,0.428,0.09,0.771,0.271,1.028c0.181,0.257,0.448,0.386,0.8,0.386c0.466,0,0.795-0.229,0.986-0.686l0.985,0.5
  c-0.209,0.391-0.5,0.697-0.871,0.921c-0.371,0.225-0.781,0.336-1.229,0.336c-0.714,0-1.291-0.219-1.729-0.657
  c-0.438-0.438-0.657-1.047-0.657-1.828c0-0.762,0.222-1.366,0.665-1.814c0.442-0.448,1.002-0.672,1.679-0.672
  C30.776,29.515,31.486,29.9,31.915,30.672z M36.528,30.672l-1.057,0.558c-0.114-0.238-0.256-0.405-0.422-0.5
  c-0.167-0.095-0.327-0.143-0.479-0.143c-0.714,0-1.071,0.471-1.071,1.415c0,0.428,0.09,0.771,0.271,1.028
  c0.181,0.257,0.447,0.386,0.8,0.386c0.466,0,0.795-0.229,0.985-0.686l1,0.5c-0.219,0.391-0.515,0.697-0.886,0.921
  c-0.371,0.225-0.775,0.336-1.214,0.336c-0.724,0-1.302-0.219-1.735-0.657c-0.434-0.438-0.65-1.047-0.65-1.828
  c0-0.762,0.221-1.366,0.664-1.814c0.443-0.448,1.003-0.672,1.679-0.672C35.404,29.515,36.109,29.9,36.528,30.672z"/>
</svg>
    