<svg width="16px" height="16px" viewBox="137.5 31.73 16 16">
  <rect x="138.189" y="37.225" fill="#aaa" width="3.216" height="9.674"/>
  <rect x="138.189" y="38.056" fill="#aaa" width="3.216" height="9.674"/>
  <path fill="#aaa" d="M139.798,36.735c1.121,0,1.819-0.742,1.819-1.671c-0.021-0.949-0.698-1.671-1.798-1.671
    c-1.101,0-1.82,0.722-1.82,1.671c0,0.929,0.698,1.671,1.777,1.671H139.798L139.798,36.735z"/>
  <path fill="#aaa" d="M143.185,47.73h3.216v-5.402c0-0.289,0.021-0.578,0.105-0.785
    c0.232-0.576,0.762-1.176,1.65-1.176c1.163,0,1.629,0.889,1.629,2.188v5.175H153v-5.547c0-2.972-1.586-4.354-3.701-4.354
    c-1.735,0-2.497,0.97-2.92,1.629h0.021v-1.402h-3.216C143.227,38.964,143.185,47.73,143.185,47.73L143.185,47.73z"/>
</svg>
          