<svg width="40px" height="40px" viewBox="0 0 40 40" enable-background="new 0 0 40 40" xml:space="preserve">
	<path fill="#EEEEEE" d="M3.659,13.287v-3.218h2.399V7.231l3.618-3.313v6.151h3.409v3.218H9.676v8.95
		c0,1.435,0.079,2.32,0.238,2.657c0.158,0.336,0.555,0.504,1.19,0.504c0.673,0,1.333-0.127,1.98-0.381v3.295
		c-0.927,0.33-1.854,0.494-2.78,0.494c-1.104,0-2-0.244-2.685-0.732s-1.117-1.102-1.295-1.838s-0.267-2.006-0.267-3.809v-9.141
		H3.659z"/>
	<path fill="#EEEEEE" d="M13.523,36.424v-3.275c0.61,0.076,1.194,0.115,1.752,0.115c0.951,0,1.666-0.146,2.143-0.438
		c0.475-0.292,0.793-0.718,0.951-1.276s0.238-2.291,0.238-5.198V13.287h-2.895v-3.218h6.513V25.76c0,3.162-0.102,5.364-0.305,6.608
		s-0.806,2.263-1.81,3.056c-1.002,0.794-2.488,1.191-4.455,1.191C14.906,36.615,14.195,36.551,13.523,36.424z M18.094,3.804
		c0-0.597,0.215-1.107,0.646-1.533s0.946-0.638,1.543-0.638c0.609,0,1.127,0.209,1.553,0.628c0.424,0.419,0.637,0.933,0.637,1.542
		s-0.215,1.127-0.646,1.552s-0.946,0.638-1.543,0.638c-0.622,0-1.143-0.219-1.562-0.657C18.303,4.899,18.094,4.388,18.094,3.804z"/>
	<path fill="#EEEEEE" d="M26.142,28.502v-4.379h4.38v4.379H26.142z"/>
</svg>
