<svg width="16px" height="16px" viewBox="4 4 16 16">
  <path fill="#ddd" d="M11.798,4C7.477,4.11,4,7.653,4,12c0,4.416,3.585,8,8.001,8S20,16.415,20,12
    c0-4.416-3.584-8-7.999-8C11.931,4,11.865,3.998,11.798,4z M11.79,5.375c0.07-0.001,0.139,0,0.21,0c3.657,0,6.626,2.968,6.626,6.626
    c0,3.657-2.969,6.625-6.626,6.625c-3.656,0-6.625-2.968-6.625-6.625C5.375,8.415,8.231,5.487,11.79,5.375z"/>
  <path fill="#ddd" d="M8.529,10.695H7.844l1.555,1.743l1.555-1.743h-0.562
    c0.122-0.85,0.87-1.396,1.732-1.328c0.034,0.003,0.067,0,0.103,0c1.408,0,1.96,1.063,2.007,2.633c0.049,1.638-0.9,2.654-2.007,2.633
    c-1.169-0.023-1.611-0.582-1.781-1.43H8.359c0.344,1.952,1.781,3.098,3.821,3.103c2.308,0.004,3.976-1.929,3.976-4.306
    c0-2.538-1.668-4.305-3.976-4.305c-0.069,0-0.135-0.003-0.204,0c-0.016,0.001-0.029,0-0.046,0
    C10.488,7.719,8.529,8.729,8.529,10.695z"/>
</svg>
      