<svg width="16px" height="16px" viewBox="4 4 16 16" >
  <path fill="#ddd" d="M11.797,4C7.477,4.108,4,7.653,4,12c0,4.416,3.584,8,8,8s8-3.585,8-8c0-4.417-3.584-8-8-8
    C11.932,4,11.865,3.998,11.797,4z M11.789,5.375c0.07-0.002,0.139,0,0.211,0c3.657,0,6.626,2.968,6.626,6.626
    c0,3.657-2.969,6.624-6.626,6.624S5.374,15.657,5.374,12C5.374,8.414,8.23,5.487,11.789,5.375z"/>
  <path fill="#ddd" d="M13.157,7.983c0,0.639-0.519,1.156-1.157,1.156s-1.156-0.519-1.156-1.156c0-0.639,0.518-1.156,1.156-1.156
    S13.157,7.346,13.157,7.983z"/>
  <path fill="#ddd" d="M10.805,17.172h2.393v-3.844h0.724c0,0-0.001-2.748,0-3.181c-0.001-0.113,0.011-0.34-0.153-0.506
    c-0.166-0.166-0.391-0.156-0.509-0.156s-2.397,0-2.516,0c-0.119,0-0.343-0.01-0.509,0.156c-0.164,0.166-0.152,0.393-0.153,0.506
    c0,0.433,0,3.181,0,3.181h0.724V17.172L10.805,17.172z"/>
</svg>
        